<!DOCTYPE svg PUBLIC "-//W3C//DTD SVG 1.1//EN" "http://www.w3.org/Graphics/SVG/1.1/DTD/svg11.dtd">
<!-- Uploaded to: SVG Repo, www.svgrepo.com, Transformed by: SVG Repo Mixer Tools -->
<svg width="800px" height="800px" viewBox="0 0 24 24" fill="none" xmlns="http://www.w3.org/2000/svg">
<g id="SVGRepo_bgCarrier" stroke-width="0"/>
<g id="SVGRepo_tracerCarrier" stroke-linecap="round" stroke-linejoin="round"/>
<g id="SVGRepo_iconCarrier"> <path fill-rule="evenodd" clip-rule="evenodd" d="M6.75 9C5.1393 9 3.75 10.1979 3.75 12C3.75 13.8021 5.1393 15 6.75 15C8.93215 15 9.96658 13.7213 11.0909 12.0197C9.9648 10.2963 8.94769 9 6.75 9ZM11.9886 10.6591C10.9022 9.07118 9.47531 7.5 6.75 7.5C4.37993 7.5 2.25 9.30208 2.25 12C2.25 14.6979 4.37993 16.5 6.75 16.5C9.45251 16.5 10.8909 14.9553 11.9845 13.3798C12.4189 14.0069 12.9091 14.6294 13.5048 15.1451C14.4451 15.9593 15.6342 16.5 17.25 16.5C19.6201 16.5 21.75 14.6979 21.75 12C21.75 9.30208 19.6201 7.5 17.25 7.5C14.5253 7.5 13.0855 9.07015 11.9886 10.6591ZM12.8809 12.023C13.3905 12.8006 13.8793 13.4853 14.4866 14.0111C15.1705 14.6032 16.0158 15 17.25 15C18.8607 15 20.25 13.8021 20.25 12C20.25 10.1979 18.8607 9 17.25 9C15.0496 9 14.0162 10.3002 12.8809 12.023Z" fill="#ffffff"/> </g>
</svg>