<?xml version="1.0" encoding="iso-8859-1"?>
<!-- Uploaded to: SVG Repo, www.svgrepo.com, Generator: SVG Repo Mixer Tools -->
<svg height="800px" width="800px" version="1.1" id="Layer_1" xmlns="http://www.w3.org/2000/svg" xmlns:xlink="http://www.w3.org/1999/xlink" 
	 viewBox="0 0 511.998 511.998" xml:space="preserve">
<circle cx="255.999" cy="255.999" r="255.999"/>
<g>
	<circle style="fill:#DBDBDB;" cx="108.005" cy="189.485" r="12.912"/>
	<path style="fill:#DBDBDB;" d="M122.4,207.568H93.6c-10.179,0.014-18.427,8.261-18.44,18.44v36.16
		c-0.002,3.702,2.997,6.706,6.7,6.708c3.702,0.002,6.706-2.997,6.708-6.699c0-0.003,0-0.006,0-0.009v-32.432h4v98.984
		c-0.002,3.702,2.997,6.706,6.7,6.708c3.702,0.002,6.706-2.997,6.708-6.699c0-0.003,0-0.006,0-0.009v-55h4v55
		c-0.002,3.702,2.997,6.706,6.7,6.708c3.702,0.002,6.706-2.997,6.708-6.699c0-0.003,0-0.006,0-0.009v-98.985h4v32.432
		c0,3.702,3.002,6.704,6.704,6.704c3.702,0,6.704-3.002,6.704-6.704v-36.16c0.022-10.162-8.198-18.418-18.36-18.44
		C122.421,207.568,122.41,207.568,122.4,207.568z"/>
	<circle style="fill:#DBDBDB;" cx="181.963" cy="189.485" r="12.912"/>
	<path style="fill:#DBDBDB;" d="M196.376,207.568h-28.8c-10.179,0.014-18.427,8.261-18.44,18.44v36.16
		c0,3.702,3.002,6.704,6.704,6.704s6.704-3.002,6.704-6.704v-32.432h4v98.984c0,3.702,3.002,6.704,6.704,6.704
		c3.702,0,6.704-3.002,6.704-6.704v-55h4v55c0,3.702,3.002,6.704,6.704,6.704c3.702,0,6.704-3.002,6.704-6.704v-98.985h4v32.432
		c0,3.702,3.002,6.704,6.704,6.704s6.704-3.002,6.704-6.704v-36.16c0.022-10.162-8.198-18.418-18.36-18.44
		C196.397,207.568,196.387,207.568,196.376,207.568z"/>
	<circle style="fill:#DBDBDB;" cx="255.96" cy="189.485" r="12.912"/>
	<path style="fill:#DBDBDB;" d="M270.399,207.568h-28.8c-10.179,0.014-18.427,8.261-18.44,18.44v36.16
		c0,3.702,3.002,6.704,6.704,6.704s6.704-3.002,6.704-6.704v-32.432h4v98.984c0,3.702,3.002,6.704,6.704,6.704
		c3.702,0,6.704-3.002,6.704-6.704v-55h4v55c0.005,3.702,3.01,6.7,6.712,6.695c3.696-0.005,6.691-3,6.695-6.695v-98.985h4v32.432
		c-0.005,3.702,2.993,6.708,6.695,6.712c3.702,0.005,6.708-2.993,6.712-6.695c0-0.006,0-0.011,0-0.017v-36.16
		c0.022-10.162-8.198-18.418-18.36-18.44C270.421,207.568,270.41,207.568,270.399,207.568z"/>
	<circle style="fill:#DBDBDB;" cx="329.957" cy="189.485" r="12.912"/>
	<path style="fill:#DBDBDB;" d="M344.376,207.568h-28.8c-10.179,0.014-18.427,8.261-18.44,18.44v36.16
		c0.005,3.702,3.01,6.7,6.712,6.695c3.696-0.005,6.691-3,6.695-6.695v-32.432h4v98.984c0.005,3.702,3.01,6.7,6.712,6.695
		c3.696-0.005,6.691-3,6.695-6.695v-55h4v55c0.005,3.702,3.01,6.7,6.712,6.695c3.696-0.005,6.691-3,6.695-6.695v-98.985h4v32.432
		c-0.005,3.702,2.993,6.708,6.695,6.712c3.702,0.005,6.708-2.993,6.712-6.695c0-0.006,0-0.011,0-0.017v-36.16
		c0.022-10.162-8.198-18.418-18.36-18.44C344.397,207.568,344.387,207.568,344.376,207.568z"/>
	<circle style="fill:#DBDBDB;" cx="404.159" cy="189.485" r="12.912"/>
	<path style="fill:#DBDBDB;" d="M418.576,207.568h-28.8c-10.179,0.014-18.427,8.261-18.44,18.44v36.16
		c0.005,3.702,3.01,6.7,6.712,6.695c3.696-0.005,6.691-3,6.695-6.695v-32.432h4v98.984c0.005,3.702,3.01,6.7,6.712,6.695
		c3.696-0.005,6.691-3,6.695-6.695v-55h4v55c0.005,3.702,3.01,6.7,6.712,6.695c3.696-0.005,6.691-3,6.695-6.695v-98.985h4v32.432
		c-0.005,3.702,2.993,6.708,6.695,6.712c3.702,0.005,6.708-2.993,6.712-6.695c0-0.006,0-0.011,0-0.017v-36.16
		c0.022-10.162-8.198-18.418-18.36-18.44C418.597,207.568,418.586,207.568,418.576,207.568z"/>
</g>
</svg>